<?xml version="1.0" encoding="UTF-8" standalone="no"?>
<!-- Created with Inkscape (http://www.inkscape.org/) -->

<svg
   width="24.073824in"
   height="5.0595379in"
   viewBox="0 0 611.47633 128.51252"
   version="1.1"
   id="svg405"
   xmlns="http://www.w3.org/2000/svg"
   xmlns:svg="http://www.w3.org/2000/svg">
  <defs
     id="defs402" />
  <g
     id="layer1"
     transform="translate(-11.762461,-570.74501)">
    <g
       id="g106118">
      <rect
         style="fill:#02273d;fill-opacity:1;stroke:none;stroke-width:2.64583;stroke-dasharray:none;stroke-dashoffset:0;stroke-opacity:1;paint-order:markers fill stroke;stop-color:#000000"
         id="rect62065"
         width="128.51224"
         height="128.51224"
         x="11.762462"
         y="570.74524"
         ry="7.9145956" />
      <path
         style="fill:#ecb516;fill-opacity:1;stroke:none;stroke-width:0.529167;stroke-dasharray:none;stroke-opacity:1"
         d="m 67.793283,691.34097 c 1.1278,0.021 4.0665,-0.2234 5.2503,-0.4358 l 1.1892,-0.2132 -1.7794,-0.6852 c -4.1956,-1.6156 -7.3107,-3.9816 -9.9112,-7.5278 -1.3969,-1.9046 -2.0551,-3.064 -4.0425,-7.1194 -0.9445,-1.9275 -2.2547,-4.4492 -2.9116,-5.6038 -3.5608,-6.2593 -8.3319,-10.0201 -13.5472,-10.6786 -1.7276,-0.2189 -1.7409,-0.1737 -0.4574,1.5316 2.265,3.0093 3.4156,5.8089 5.6278,13.6952 1.2234,4.361 2.2826,6.7733 3.9926,9.0923 2.4512,3.3245 5.8947,5.7208 10.0467,6.9916 1.2799,0.3917 4.9333,0.9239 6.5427,0.9531 z m 14.3359,-2.103 c 6.1128,0.1589 12.5959,-1.9822 17.4218,-5.7534 5.375197,-4.2004 8.551797,-8.56 10.459287,-14.3546 1.1512,-3.4971 1.5444,-6.7106 1.264,-10.3297 -0.4758,-6.1367 -3.40009,-11.5397 -8.46609,-15.6426 -3.179997,-2.5752 -6.597597,-4.2964 -13.596797,-6.8478 -8.8013,-3.2082 -13.3721,-6.2901 -16.1724,-10.9043 -3.0067,-4.9544 -3.1829,-10.88759 -0.4772,-16.06689 0.4272,-0.8176 0.747,-1.5249 0.7106,-1.5716 -0.1567,-0.2015 -2.5325,1.8682 -3.5973,3.1337 -2.2262,2.6458 -3.6224,5.7989 -4.055,9.15769 -0.8536,6.6268 2.2881,12.8346 8.5671,16.9277 2.1671,1.4127 4.753,2.6218 8.3883,3.9224 5.3132,1.901 7.7978,3.0883 10.8483,5.1839 4.1022,2.8181 7.419897,7.0586 8.569797,10.9532 0.1808,0.6125 0.2917,1.1426 0.2464,1.1778 -0.046,0.035 -0.3047,-0.3824 -0.5762,-0.9282 -1.1346,-2.2798 -3.574097,-5.1035 -6.070197,-7.0259 -3.383,-2.6056 -6.6859,-4.1858 -14.4275,-6.9026 -6.836,-2.3991 -10.8854,-4.9776 -14.1398,-9.0036 -2.8563,-3.5335 -4.1807,-7.0078 -4.4584,-11.6953 -0.046,-0.7855 -0.042,-1.815 0.01,-2.2879 l 0.094,-0.8597 -0.3137,0.5282 c -0.6639,1.118 -1.8131,4.3364 -2.1071,5.9012 -0.5703,3.0354 -0.2779,6.3922 0.8178,9.3924 0.7698,2.1079 1.408,3.2502 2.9203,5.2272 1.5651,2.0458 3.3795,3.6836 5.8472,5.2777 2.3077,1.4907 3.6837,2.165 8.3878,4.11 8.398,3.4723 13.5769,7.037 17.4177,11.9883 1.7426,2.2465 2.4881,3.5599 3.245,5.7169 1.248197,3.5573 1.177097,7.1283 -0.2057,10.3562 -2.1451,5.0064 -8.2094,8.7082 -14.6552,8.946 -2.8958,0.1068 -4.7434,-0.3654 -6.6653,-1.7035 -2.2652,-1.5771 -3.4106,-3.42 -5.8931,-9.4817 -0.7922,-1.9343 -1.7844,-4.268 -2.2049,-5.1859 -3.6653,-8.0003 -8.9699,-13.1764 -14.8924,-14.5319 -0.8444,-0.1934 -1.5644,-0.3295 -1.6001,-0.3029 -0.036,0.027 0.3495,0.7169 0.8557,1.5337 1.343,2.1666 2.4637,4.9615 3.9052,9.7391 1.5418,5.1096 2.5409,7.7089 3.8329,9.9712 2.9131,5.1005 6.2079,8.0333 11.6408,10.3613 2.2269,0.9543 6.3559,1.8022 9.1263,1.8742 z m -16.0991,-37.8191 c -1.6662,-1.3205 -2.9924,-2.7244 -4.6219,-4.8926 -3.1744,-4.224 -4.8242,-8.5675 -5.2878,-13.9213 -0.1424,-1.6451 -0.1075,-2.3217 0.2743,-5.3067 0.3914,-3.0511 0.515,-3.644 1.1503,-5.4825 2.9537,-8.54449 9.7568,-15.74609 18.5917,-19.68119 2.7753,-1.2361 7.9896,-2.8483 12.0036,-3.7114 1.5598,-0.3354 2.6957,-0.5402 2.6887,-0.4846 -6e-4,0.024 -0.4731,0.2754 -1.0447,0.5588 -4.1919,2.0785 -9.1013,5.539 -11.2598,7.9369 -1.4073,1.5632 -2.8566,3.8009 -3.5423,5.469 -0.4283,1.0419 -0.5931,1.7717 -0.8566,3.7927 -0.2861,2.20019 -0.2969,2.64959 -0.082,3.71999 0.9811,4.8927 4.0594,8.514 9.6646,11.3693 2.389,1.217 6.4059,2.7143 6.4448,2.4023 0.012,-0.077 -0.043,-0.1488 -0.1161,-0.1579 -0.074,-0.01 -0.5515,-0.5459 -1.0621,-1.1925 -2.6597,-3.3689 -3.6228,-6.8505 -3.075,-11.1153 0.3822,-2.9774 1.5716,-5.43819 3.3101,-6.84929 1.0058,-0.8165 0.6774,-0.8285 4.0175,0.1468 0.9447,0.2758 2.6179,0.6235 3.7183,0.7726 1.7585,0.2382 2.0892,0.2374 2.7303,-0.01 1.066497,-0.4063 1.441797,-0.9235 1.639297,-2.2607 0.091,-0.618 0.1901,-1.239 0.2188,-1.3799 0.029,-0.1409 0.3582,-0.5003 0.7309,-0.7988 0.6037,-0.4835 0.6771,-0.6158 0.672,-1.2125 -0.01,-0.5686 0.079,-0.7449 0.5531,-1.1661 0.6615,-0.5871 0.6917,-0.7176 0.3436,-1.4903 -0.4445,-0.9871 -0.2973,-1.2806 1.3289,-2.6481 2.263,-1.9031 2.3856,-2.4533 0.819,-3.6779 -2.3167,-1.811 -3.2289,-3.7192 -3.3044,-6.9126 -0.088,-3.7182 -0.4221,-5.5192 -1.4269,-7.6909 l -0.4004,-0.8651 -0.6821,1.0371 c -1.452497,2.2083 -4.257997,4.6278 -6.954297,5.9978 -2.8066,1.4259 -5.004,2.0365 -12.4162,3.4502 -8.1803,1.5602 -13.5429,4.0549 -18.5275,8.619 -2.9232,2.6767 -5.9547,6.5866 -7.5502,9.7381 -0.8802,1.7385 -2.1938,5.15899 -2.6718,6.95689 -0.6104,2.2965 -1.0979,6.5196 -1.0123,8.7751 0.312,8.2576 4.3374,16.3048 10.2562,20.503 1.4267,1.0119 3.7072,2.1161 5.0362,2.4384 l 0.9875,0.2396 z m -7.378,-48.45159 c 3.5706,-3.7901 8.0386,-6.7023 12.9725,-8.4551 2.8051,-0.9966 4.2666,-1.3619 10.027,-2.5064 7.3349,-1.4572 9.6474,-2.3208 12.5482,-4.6859 1.688,-1.3763 2.5029,-2.2616 3.3432,-3.6319 0.9039,-1.4742 0.8925,-1.5274 -0.4963,-2.3259 -3.5138,-2.0202 -8.6679,-3.0511 -12.9772,-2.5957 -5.2913,0.5593 -9.7599,2.4223 -14.1669,5.9064 -5.6345,4.4546 -9.351,9.8265 -12.0611,17.4335 -0.3771,1.0585 -0.676,2.0324 -0.6642,2.1642 0.012,0.1318 0.6755,-0.4546 1.4748,-1.3032 z"
         id="path62067" />
    </g>
    <text
       xml:space="preserve"
       style="font-style:normal;font-variant:normal;font-weight:300;font-stretch:normal;font-size:178.489px;font-family:Rubik;-inkscape-font-specification:'Rubik Light';fill:#02273d;fill-opacity:1;stroke:none;stroke-width:13.3866;stroke-dasharray:none;stroke-dashoffset:0;stroke-opacity:1;paint-order:markers fill stroke;stop-color:#000000"
       x="145.24535"
       y="697.47217"
       id="text62071"><tspan
         id="tspan62069"
         style="font-style:normal;font-variant:normal;font-weight:300;font-stretch:normal;font-family:Rubik;-inkscape-font-specification:'Rubik Light';fill:#02273d;fill-opacity:1;stroke-width:13.3866"
         x="145.24535"
         y="697.47217">SIREN</tspan></text>
  </g>
</svg>
